<svg width="25" height="22" viewBox="0 0 25 22" fill="none" xmlns="http://www.w3.org/2000/svg">
<path d="M21.3415 0.6875H3.63692C2.85458 0.688431 2.10453 1.03443 1.55133 1.64958C0.99814 2.26474 0.686988 3.09879 0.686152 3.96875V18.0312C0.686988 18.9012 0.99814 19.7353 1.55133 20.3504C2.10453 20.9656 2.85458 21.3116 3.63692 21.3125H21.3415C22.1238 21.3116 22.8739 20.9656 23.4271 20.3504C23.9803 19.7353 24.2914 18.9012 24.2923 18.0312V3.96875C24.2914 3.09879 23.9803 2.26474 23.4271 1.64958C22.8739 1.03443 22.1238 0.688431 21.3415 0.6875ZM20.5943 6.11504L13.0066 12.6775C12.8587 12.8054 12.6766 12.8749 12.4892 12.8749C12.3018 12.8749 12.1197 12.8054 11.9718 12.6775L4.38409 6.11504C4.29494 6.04018 4.22006 5.94636 4.1638 5.83904C4.10754 5.73172 4.07103 5.61303 4.05637 5.48988C4.04172 5.36673 4.04922 5.24157 4.07844 5.12167C4.10766 5.00177 4.15802 4.88952 4.22659 4.79145C4.29516 4.69338 4.38058 4.61145 4.47787 4.5504C4.57517 4.48936 4.6824 4.45042 4.79334 4.43586C4.90429 4.4213 5.01672 4.43141 5.12413 4.46559C5.23153 4.49976 5.33175 4.55734 5.41897 4.63496L12.4892 10.7498L19.5594 4.63496C19.7362 4.4865 19.9585 4.42138 20.1781 4.4537C20.3977 4.48601 20.5971 4.61316 20.7331 4.80765C20.8691 5.00214 20.9308 5.24833 20.9048 5.49298C20.8788 5.73764 20.7673 5.9611 20.5943 6.11504Z" fill="#FC3C3C"/>
</svg>
