<svg width="17" height="26" viewBox="0 0 17 26" fill="none" xmlns="http://www.w3.org/2000/svg">
<path d="M8.41395 0.5C4.08795 0.5 0.589146 4.4125 0.589146 9.25C0.589146 15.8125 8.41395 25.5 8.41395 25.5C8.41395 25.5 16.2388 15.8125 16.2388 9.25C16.2388 4.4125 12.74 0.5 8.41395 0.5ZM8.41395 12.375C7.67278 12.375 6.96197 12.0458 6.43789 11.4597C5.91381 10.8737 5.61938 10.0788 5.61938 9.25C5.61938 8.4212 5.91381 7.62634 6.43789 7.04029C6.96197 6.45424 7.67278 6.125 8.41395 6.125C9.15512 6.125 9.86593 6.45424 10.39 7.04029C10.9141 7.62634 11.2085 8.4212 11.2085 9.25C11.2085 10.0788 10.9141 10.8737 10.39 11.4597C9.86593 12.0458 9.15512 12.375 8.41395 12.375Z" fill="#FC3C3C"/>
</svg>
