<svg width="23" height="26" viewBox="0 0 23 26" fill="none" xmlns="http://www.w3.org/2000/svg">
<path d="M21.3321 4.74414L18.5263 1.62695C18.3283 1.40589 18.0931 1.23049 17.834 1.11083C17.5749 0.991173 17.2971 0.929613 17.0166 0.929688C16.4449 0.929688 15.9075 1.17871 15.5044 1.62695L12.4851 4.98438C12.2863 5.20447 12.1286 5.46608 12.021 5.75416C11.9133 6.04225 11.858 6.35114 11.8581 6.66309C11.8581 7.29883 12.082 7.89648 12.4851 8.34473L14.6929 10.7998C14.1761 12.0665 13.4576 13.2188 12.572 14.2012C11.6887 15.1883 10.6525 15.9902 9.51325 16.5684L7.30545 14.1133C7.10752 13.8922 6.87226 13.7168 6.61319 13.5972C6.35412 13.4775 6.07634 13.4159 5.79581 13.416C5.2241 13.416 4.68664 13.665 4.28355 14.1133L1.26165 17.4678C1.06261 17.6883 0.904737 17.9504 0.797125 18.239C0.689513 18.5276 0.634283 18.837 0.634611 19.1494C0.634611 19.7852 0.858553 20.3828 1.26165 20.8311L4.06224 23.9453C4.70508 24.6631 5.59295 25.0703 6.50452 25.0703C6.69685 25.0703 6.88127 25.0527 7.06306 25.0176C10.6145 24.3672 14.137 22.2666 16.9797 19.1084C19.8198 15.9531 21.7062 12.0391 22.299 8.07812C22.4782 6.86816 22.1172 5.62305 21.3321 4.74414Z" fill="#FC3C3C"/>
</svg>
