<svg width="32" height="32" viewBox="0 0 32 32" fill="none" xmlns="http://www.w3.org/2000/svg">
<path d="M30.375 0.375H1.625C0.933594 0.375 0.375 0.933594 0.375 1.625V30.375C0.375 31.0664 0.933594 31.625 1.625 31.625H30.375C31.0664 31.625 31.625 31.0664 31.625 30.375V1.625C31.625 0.933594 31.0664 0.375 30.375 0.375ZM9.64453 27.0039H5.00781V12.0898H9.64453V27.0039ZM7.32812 10.0508C6.79659 10.0508 6.27699 9.89316 5.83503 9.59786C5.39307 9.30255 5.04861 8.88282 4.8452 8.39174C4.64179 7.90067 4.58857 7.3603 4.69226 6.83898C4.79596 6.31765 5.05192 5.83879 5.42778 5.46293C5.80363 5.08708 6.2825 4.83112 6.80382 4.72742C7.32514 4.62372 7.86551 4.67694 8.35659 4.88035C8.84766 5.08377 9.26739 5.42823 9.5627 5.87019C9.85801 6.31214 10.0156 6.83174 10.0156 7.36328C10.0117 8.84766 8.80859 10.0508 7.32812 10.0508ZM27.0039 27.0039H22.3711V19.75C22.3711 18.0195 22.3398 15.7969 19.9609 15.7969C17.5508 15.7969 17.1797 17.6797 17.1797 19.625V27.0039H12.5508V12.0898H16.9961V14.1289H17.0586C17.6758 12.957 19.1875 11.7188 21.4453 11.7188C26.1406 11.7188 27.0039 14.8086 27.0039 18.8242V27.0039Z" fill="white" fill-opacity="0.8"/>
</svg>
